<svg xmlns="http://www.w3.org/2000/svg" viewBox="0 0 400 400" preserveAspectRatio="xMidYMid slice" role="img" aria-label="Illustrasjon av en kanelsnurr">
  <rect width="400" height="400" fill="#efe4d4"/>
  <ellipse cx="200" cy="312" rx="122" ry="16" fill="#7a4a20" opacity="0.15"/>
  <circle cx="200" cy="192" r="120" fill="#a05f27"/>
  <circle cx="200" cy="185" r="112" fill="#c98a44"/>
  <g fill="none" stroke="#5a3418" stroke-width="7" stroke-linecap="round" opacity="0.9">
    <circle cx="200" cy="185" r="16"/>
    <path d="M200 185 a40 40 0 1 1 -30 56"/>
    <path d="M200 185 a70 70 0 1 1 -60 108"/>
    <path d="M200 185 a98 98 0 1 1 -86 150"/>
  </g>
  <!-- gul melis-dryss (aksent) -->
  <path d="M144 168 q16 15 32 0 q16 -15 32 0 q16 15 32 0 q16 -15 32 0" fill="none" stroke="#f5c842" stroke-width="8" stroke-linecap="round"/>
</svg>
